<svg xmlns="http://www.w3.org/2000/svg"><symbol id="btn-naver" viewBox="0 0 20 20"><g clip-path="url(#a)"><path fill="#03C75A" d="M18 20H2c-1.1 0-2-.9-2-2V2C0 .9.9 0 2 0h16c1.1 0 2 .9 2 2v16c0 1.1-.9 2-2 2z"/><path fill="#fff" d="M11.35 10.25L8.5 6.2H6.15v7.6h2.5V9.75l2.85 4.05h2.35V6.2h-2.5v4.05z"/></g><defs><clipPath id="a"><path fill="#fff" d="M0 0h20v20H0z"/></clipPath></defs></symbol><symbol id="btn-gmail" viewBox="0 0 48 48"><path fill="#4285F4" d="M3.273 42.009h7.636V23.463L0 15.281v23.455a3.272 3.272 0 0 0 3.273 3.273z"/><path fill="#34A853" d="M37.09 42.009h7.637A3.272 3.272 0 0 0 48 38.736V15.282l-10.91 8.181V42.01z"/><path fill="#FBBC04" d="M37.09 9.282v14.181L48 15.281v-4.363c0-4.045-4.617-6.355-7.855-3.927l-3.054 2.29z"/><path fill="#EA4335" fill-rule="evenodd" d="M10.91 23.463V9.281L24 19.1l13.09-9.82v14.182L24 33.282l-13.09-9.819z" clip-rule="evenodd"/><path fill="#C5221F" d="M0 10.918v4.364l10.91 8.181V9.282L7.854 6.99C4.617 4.563 0 6.873 0 10.918z"/></symbol><symbol id="btn-kakao" viewBox="0 0 20 20"><circle cx="10" cy="10" r="10" fill="#FEE500"/><path fill="#392020" d="M10.029 4.826c-3.111 0-5.62 2.008-5.62 4.444 0 1.582 1.043 2.967 2.61 3.758l-.53 1.979a.168.168 0 0 0 .04.173.177.177 0 0 0 .116.044.168.168 0 0 0 .096-.04l2.28-1.538c.337.046.676.07 1.016.072 3.107 0 5.62-2.007 5.62-4.448 0-2.44-2.52-4.444-5.628-4.444z"/><path fill="#FEE500" d="M6.376 8.568H5.76a.401.401 0 0 1-.216-.056.249.249 0 0 1-.113-.165.353.353 0 0 1 0-.064.249.249 0 0 1 .097-.209.401.401 0 0 1 .24-.076H7.62a.373.373 0 0 1 .217.06.233.233 0 0 1 .112.165.31.31 0 0 1 0 .06.257.257 0 0 1-.096.212.37.37 0 0 1-.237.073h-.594v2.111a.325.325 0 0 1-.2.316.31.31 0 0 1-.125.022.325.325 0 0 1-.209-.069.301.301 0 0 1-.108-.18.329.329 0 0 1 0-.089l-.004-2.111zm1.75-.414a.277.277 0 0 1 .117-.16.373.373 0 0 1 .2-.049h.153a.401.401 0 0 1 .213.053.33.33 0 0 1 .136.196l.803 2.268c.021.06.039.12.053.181a.707.707 0 0 1 0 .076.27.27 0 0 1-.089.21.294.294 0 0 1-.217.088.277.277 0 0 1-.289-.185l-.168-.494H7.982l-.169.494a.273.273 0 0 1-.293.184.277.277 0 0 1-.29-.229.366.366 0 0 1 .001-.068.353.353 0 0 1 0-.12c0-.044.028-.092.044-.136l.851-2.309zm.402.526l-.381 1.204h.758L8.528 8.68zm1.364-.397a.341.341 0 0 1 .089-.245.313.313 0 0 1 .237-.092.339.339 0 0 1 .208.068.305.305 0 0 1 .105.184.298.298 0 0 1 0 .085v2.111h1.104a.4.4 0 0 1 .216.06.246.246 0 0 1 .113.165v.06a.25.25 0 0 1-.096.21.402.402 0 0 1-.241.075H10.27a.401.401 0 0 1-.245-.064.31.31 0 0 1-.12-.2.996.996 0 0 1 0-.133l-.013-2.284zm2.144 0a.357.357 0 0 1 .088-.245.354.354 0 0 1 .446-.024.309.309 0 0 1 .108.185.594.594 0 0 1 0 .084v.983l1.016-1.172c.04-.04.08-.077.125-.112a.257.257 0 0 1 .136-.036c.07 0 .139.02.197.06a.246.246 0 0 1 .104.16.061.061 0 0 1 0 .025.07.07 0 0 0 0 .028.245.245 0 0 1-.032.12.593.593 0 0 1-.076.108l-.667.731.803 1.244v.04a.687.687 0 0 1 .097.19v.02a.29.29 0 0 1-.1.248.377.377 0 0 1-.234.077.318.318 0 0 1-.16-.037.403.403 0 0 1-.129-.14l-.746-1.204-.358.373v.67a.357.357 0 0 1-.088.245.325.325 0 0 1-.24.093.321.321 0 0 1-.206-.069.301.301 0 0 1-.108-.18.335.335 0 0 1 0-.089l.024-2.376z"/></symbol><symbol id="btn-apple" viewBox="0 0 20 20"><path d="M18.144 15.586a10.843 10.843 0 0 1-1.085 1.933c-.57.807-1.038 1.365-1.398 1.674-.558.509-1.156.77-1.797.784-.46 0-1.014-.13-1.659-.392-.647-.262-1.242-.392-1.786-.392-.571 0-1.183.13-1.837.392-.656.263-1.184.4-1.588.413-.614.026-1.226-.242-1.837-.805-.39-.337-.878-.914-1.462-1.733-.627-.874-1.142-1.888-1.546-3.043-.432-1.248-.649-2.457-.649-3.627 0-1.34.292-2.496.878-3.465a5.125 5.125 0 0 1 1.838-1.842A4.979 4.979 0 0 1 6.7 4.788c.488 0 1.127.15 1.922.443.793.295 1.302.444 1.525.444.166 0 .732-.175 1.69-.523.907-.323 1.671-.457 2.298-.404 1.698.135 2.974.799 3.822 1.994-1.518.912-2.27 2.189-2.255 3.827.014 1.276.481 2.338 1.4 3.181a4.6 4.6 0 0 0 1.397.909c-.112.322-.23.63-.356.927zM14.249.4c0 1-.368 1.934-1.103 2.799-.887 1.027-1.96 1.621-3.124 1.527A3.09 3.09 0 0 1 10 4.347c0-.96.422-1.987 1.17-2.828A4.52 4.52 0 0 1 12.597.458C13.173.18 13.717.026 14.229 0c.015.134.021.267.021.4z"/></symbol><symbol id="btn-google" viewBox="0 0 24 24"><path fill="#4285F4" fill-rule="evenodd" d="M23.04 12.261c0-.815-.073-1.6-.21-2.352H12v4.448h6.19a5.29 5.29 0 0 1-2.296 3.471v2.886h3.717c2.174-2.002 3.429-4.95 3.429-8.453z" clip-rule="evenodd"/><path fill="#34A853" fill-rule="evenodd" d="M12 23.5c3.105 0 5.708-1.03 7.61-2.786l-3.716-2.886c-1.03.69-2.347 1.098-3.894 1.098-2.995 0-5.53-2.023-6.435-4.741H1.723v2.98A11.496 11.496 0 0 0 12 23.5z" clip-rule="evenodd"/><path fill="#FBBC05" fill-rule="evenodd" d="M5.565 14.185A6.913 6.913 0 0 1 5.205 12c0-.758.13-1.495.36-2.185v-2.98H1.723A11.496 11.496 0 0 0 .5 12c0 1.856.444 3.612 1.223 5.165l3.842-2.98z" clip-rule="evenodd"/><path fill="#EA4335" fill-rule="evenodd" d="M12 5.074c1.688 0 3.204.58 4.396 1.72l3.299-3.299C17.703 1.64 15.1.5 12 .5A11.496 11.496 0 0 0 1.723 6.835l3.842 2.98C6.47 7.097 9.005 5.074 12 5.074z" clip-rule="evenodd"/></symbol></svg>